<?xml version="1.0" encoding="utf-8"?>
<!-- Generator: Adobe Illustrator 25.0.0, SVG Export Plug-In . SVG Version: 6.00 Build 0)  -->
<svg version="1.1" id="Layer_1" xmlns="http://www.w3.org/2000/svg" xmlns:xlink="http://www.w3.org/1999/xlink" x="0px" y="0px"
	 width="20" height="20" viewBox="0 0 30 30" style="enable-background:new 0 0 30 30;" xml:space="preserve">
<style type="text/css">
	.st0{fill:none;stroke:#000000;stroke-width:0.9225;stroke-miterlimit:10;}
</style>
<path d="M25,10h-7V8h7V10z M26.7,20c-0.4,1.3-2,3-5.1,3c-3.1,0-5.6-1.7-5.6-5.7c0-3.9,2.3-5.9,5.5-5.9c3.1,0,5,1.8,5.4,4.4
	C27,16.3,27,17,27,18h-8c0.1,3.2,3.5,3.3,4.6,2C23.6,20,26.7,20,26.7,20z M19,16h5c-0.1-1.5-1.1-2.2-2.5-2.2
	C20.1,13.8,19.3,14.5,19,16z M9.5,23H3V8h7c5.5,0.1,5.6,5.4,2.7,6.9C16.1,16.2,16.2,23,9.5,23z M6,14h3.6c2.5,0,2.9-3-0.3-3H6
	C6,11,6,14,6,14z M9.4,17H6v3h3.3C12.4,20,12.2,17,9.4,17z"/>
<path class="st0" d="M27,28.7H3c-1.1,0-1.9-0.9-1.9-1.9V3.2C1.1,2.2,2,1.3,3,1.3H27c1.1,0,1.9,0.9,1.9,1.9v23.5
	C28.9,27.8,28,28.7,27,28.7z"/>
</svg>
