<?xml version="1.0" encoding="utf-8"?>
<!-- Generator: Adobe Illustrator 25.0.0, SVG Export Plug-In . SVG Version: 6.00 Build 0)  -->
<svg version="1.1" id="Layer_1" xmlns="http://www.w3.org/2000/svg" xmlns:xlink="http://www.w3.org/1999/xlink" x="5px" y="5px"
	 width="20" height="20" viewBox="0 0 30 30" style="enable-background:new 0 0 10 10;" xml:space="preserve">
<style type="text/css">
	.st0{fill:none;stroke:#000000;stroke-width:0.9225;stroke-miterlimit:10;}
</style>
<path class="st0" d="M27,28.7H3c-1.1,0-1.9-0.9-1.9-1.9V3.2C1.1,2.2,2,1.3,3,1.3H27c1.1,0,1.9,0.9,1.9,1.9v23.5
	C28.9,27.8,28,28.7,27,28.7z"/>
<path d="M4.4,7.2c0-0.7,0.2-1.2,0.7-1.7C5.6,5.1,6.2,4.8,7,4.8c0.8,0,1.4,0.2,1.8,0.7c0.5,0.5,0.7,1,0.7,1.8c0,0.7-0.2,1.2-0.7,1.6
	C8.3,9.4,7.7,9.6,6.9,9.6h0c-0.8,0-1.4-0.2-1.8-0.7C4.6,8.5,4.4,7.9,4.4,7.2z M4.6,25.2V11.4h4.6v13.7H4.6z M11.7,25.2h4.6v-7.7
	c0-0.5,0.1-0.8,0.2-1.1c0.2-0.5,0.5-0.9,0.9-1.2c0.4-0.3,0.9-0.5,1.5-0.5c1.5,0,2.3,1,2.3,3.1v7.3h4.6v-7.9c0-2-0.5-3.6-1.4-4.6
	c-1-1-2.2-1.6-3.8-1.6c-1.8,0-3.1,0.8-4.1,2.3v0h0l0,0v-2h-4.6c0,0.4,0,1.8,0,4.1C11.8,17.8,11.7,21,11.7,25.2z"/>
</svg>
